<?xml version="1.0" encoding="UTF-8"?>
<svg width="1200pt" height="1200pt" version="1.1" viewBox="0 0 1200 1200" xmlns="http://www.w3.org/2000/svg">
 <path d="m214.64 214.64c19.527-19.527 51.184-19.527 70.711 0l314.64 314.64 314.64-314.64c19.527-19.527 51.184-19.527 70.711 0 19.523 19.527 19.523 51.184 0 70.711l-314.64 314.64 314.64 314.64c19.523 19.527 19.523 51.184 0 70.711-19.527 19.523-51.184 19.523-70.711 0l-314.64-314.64-314.64 314.64c-19.527 19.523-51.184 19.523-70.711 0-19.527-19.527-19.527-51.184 0-70.711l314.64-314.64-314.64-314.64c-19.527-19.527-19.527-51.184 0-70.711z" fill-rule="evenodd"/>
</svg>
