<?xml version="1.0" encoding="UTF-8"?>
<svg width="1200pt" height="1200pt" version="1.1" viewBox="0 0 1200 1200" xmlns="http://www.w3.org/2000/svg">
 <path d="m1e3 1050c13.262 0 25.98-5.2695 35.355-14.645s14.645-22.094 14.645-35.355v-800c0-13.262-5.2695-25.98-14.645-35.355s-22.094-14.645-35.355-14.645h-800c-13.262 0-25.98 5.2695-35.355 14.645s-14.645 22.094-14.645 35.355v800c0 13.262 5.2695 25.98 14.645 35.355s22.094 14.645 35.355 14.645zm-750-800h700v700h-450v-200c0-13.262-5.2695-25.98-14.645-35.355s-22.094-14.645-35.355-14.645h-200zm303.85 369.1c-2.5117-6.0586-3.8203-12.547-3.8516-19.102v-175c0-17.863 9.5312-34.371 25-43.301 15.469-8.9336 34.531-8.9336 50 0 15.469 8.9297 25 25.438 25 43.301v54.301l139.65-139.65v-0.003906c9.3203-9.6445 22.121-15.145 35.531-15.262 13.41-0.11719 26.309 5.1602 35.789 14.645 9.4844 9.4805 14.762 22.379 14.645 35.789-0.11719 13.41-5.6172 26.211-15.262 35.531l-139.65 139.65h54.301c17.863 0 34.371 9.5312 43.301 25 8.9336 15.469 8.9336 34.531 0 50-8.9297 15.469-25.438 25-43.301 25h-175c-6.5547-0.03125-13.043-1.3398-19.102-3.8516-12.246-5.0742-21.973-14.801-27.047-27.047z"/>
</svg>
