<?xml version="1.0" encoding="UTF-8"?>
<svg width="1200pt" height="1200pt" version="1.1" viewBox="0 0 1200 1200" xmlns="http://www.w3.org/2000/svg">
 <path d="m1105.7 94.289c-41.098-41.102-96.816-64.223-154.94-64.289h-438.46c-58.125 0.070312-113.84 23.188-154.94 64.289-41.105 41.094-64.223 96.816-64.289 154.94v43.848h-43.848c-58.125 0.070313-113.84 23.188-154.94 64.289-41.102 41.094-64.223 96.816-64.289 154.94v438.46c0.070312 58.125 23.188 113.84 64.289 154.94 41.094 41.105 96.816 64.223 154.94 64.289h438.46c58.125-0.070312 113.84-23.188 154.94-64.289 41.105-41.094 64.223-96.816 64.289-154.94v-43.848h43.848c58.125-0.070313 113.84-23.188 154.94-64.289 41.105-41.094 64.223-96.816 64.289-154.94v-438.46c-0.070312-58.125-23.188-113.84-64.289-154.94zm-286.48 856.48c0 34.891-13.859 68.344-38.52 93.016-24.676 24.664-58.125 38.52-93.016 38.52l-438.46 0.003906c-34.891 0-68.344-13.859-93.016-38.52-24.664-24.676-38.52-58.125-38.52-93.016l-0.003906-438.46c0-34.891 13.859-68.344 38.52-93.016 24.676-24.664 58.125-38.52 93.016-38.52h438.46c34.891 0 68.344 13.859 93.016 38.52 24.664 24.676 38.52 58.125 38.52 93.016zm263.08-263.08c0 34.891-13.859 68.344-38.52 93.016-24.676 24.664-58.125 38.52-93.016 38.52h-43.848l-0.003906-306.92c-0.070313-58.125-23.188-113.84-64.289-154.94-41.094-41.105-96.816-64.223-154.94-64.289h-306.92v-43.848c0-34.891 13.859-68.344 38.52-93.016 24.676-24.664 58.125-38.52 93.016-38.52h438.46c34.891 0 68.344 13.859 93.016 38.52 24.664 24.676 38.52 58.125 38.52 93.016z"/>
</svg>
