<?xml version="1.0" encoding="UTF-8"?>
<svg width="1200pt" height="1200pt" version="1.1" viewBox="0 0 1200 1200" xmlns="http://www.w3.org/2000/svg">
 <path d="m783.47 528h-28.312v-42.844c0-85.688-69.469-155.16-155.16-155.16s-155.16 69.469-155.16 155.16v42.844h-28.312c-14.953 0-27.047 12.047-27.141 27v288c0 15 12.141 27.141 27.141 27.141h366.94c15 0 27.141-12.141 27.141-27.141v-288c-0.09375-14.953-12.188-27-27.141-27zm-183.47 240.94c-21.609 0.09375-40.875-13.688-47.672-34.219-6.8438-20.531 0.28125-43.125 17.672-56.016v-36c0.046875-12.094 7.3125-22.969 18.469-27.609 11.203-4.6406 24.047-2.1094 32.672 6.375 5.6719 5.625 8.8594 13.266 8.8594 21.234v36c17.391 12.891 24.516 35.484 17.672 56.016-6.7969 20.531-26.062 34.312-47.672 34.219zm102.23-240.94h-204v-42.844c3.7031-53.625 48.234-95.25 102-95.25s98.344 41.625 102 95.25z"/>
</svg>
