<?xml version="1.0" encoding="UTF-8"?>
<svg width="1200pt" height="1200pt" version="1.1" viewBox="0 0 1200 1200" xmlns="http://www.w3.org/2000/svg">
 <g>
  <path d="m187.5 1125h675c62.016 0 112.5-50.484 112.5-112.5v-562.5c0-20.719-16.781-37.5-37.5-37.5s-37.5 16.781-37.5 37.5v562.5c0 20.672-16.828 37.5-37.5 37.5h-675c-20.672 0-37.5-16.828-37.5-37.5v-675c0-20.672 16.828-37.5 37.5-37.5h562.5c20.719 0 37.5-16.781 37.5-37.5s-16.781-37.5-37.5-37.5h-562.5c-62.016 0-112.5 50.484-112.5 112.5v675c0 62.016 50.484 112.5 112.5 112.5z"/>
  <path d="m1087.5 75h-375c-20.719 0-37.5 16.781-37.5 37.5s16.781 37.5 37.5 37.5h284.48l-761.02 760.97c-14.672 14.672-14.672 38.344 0 53.016 7.3125 7.3594 16.922 11.016 26.531 11.016s19.219-3.6562 26.531-10.969l760.97-761.02v284.48c0 20.719 16.781 37.5 37.5 37.5s37.5-16.781 37.5-37.5v-375c0-20.719-16.781-37.5-37.5-37.5z"/>
 </g>
</svg>
