<svg version="1.2" xmlns="http://www.w3.org/2000/svg" viewBox="0 0 110 110" width="110" height="110">
	<title>noun-money-6736606-svg</title>
	<style>
		tspan { white-space:pre } 
		.s0 { fill: #000000 } 
	</style>
	<g id="Layer">
		<path id="Layer" fill-rule="evenodd" class="s0" d="m104 56.1c0 27.2-22 49.2-49.2 49.2-27.2 0-49.2-22-49.2-49.2 0-27.2 22-49.2 49.2-49.2 27.2 0 49.2 22 49.2 49.2zm-6.1 0c0-23.7-19.4-43.1-43.1-43.1-23.7 0-43.1 19.4-43.1 43.1 0 23.7 19.4 43.1 43.1 43.1 23.7 0 43.1-19.4 43.1-43.1z"/>
		<path id="Layer" class="s0" d="m57.3 51.4c-7.2-3.1-9.4-4.9-9.4-8.3 0-2.8 2-6 7.6-6 5.2 0 8.3 1.8 9.7 2.6l1 0.6 2.7-7.2-0.7-0.4c-2.9-1.8-6.1-2.7-10-3v-7.8h-7v8.2c-7.5 1.6-12.3 6.9-12.3 13.9 0 8.3 6.7 12.1 14 14.9 6 2.5 8.5 5 8.5 8.7 0 4.1-3.6 6.9-8.6 6.9-3.9 0-7.9-1.2-11.1-3.3l-1.1-0.8-2.7 7.4 0.6 0.4c2.9 2 7.5 3.5 12 3.8v8.1h7v-8.5c7.7-1.7 12.8-7.4 12.8-14.6 0.2-7.3-3.8-11.9-13-15.6z"/>
	</g>
</svg>