<?xml version="1.0" encoding="UTF-8"?>
<svg width="1200pt" height="1200pt" version="1.1" viewBox="0 0 1200 1200" xmlns="http://www.w3.org/2000/svg">
 <g>
  <path d="m600 228c-205.08 0-372 166.92-372 372s166.92 372 372 372 372-166.92 372-372-166.92-372-372-372zm0 672c-165.48 0-300-134.52-300-300s134.52-300 300-300 300 134.52 300 300-134.52 300-300 300z"/>
  <path d="m732 504c0-9.6016-3.7188-18.602-10.559-25.441-14.039-14.039-36.84-14.039-50.879 0l-70.559 70.559-70.559-70.559c-14.039-14.039-36.84-14.039-50.879 0-6.8398 6.8398-10.559 15.84-10.559 25.441s3.7188 18.602 10.559 25.441l70.559 70.559-70.559 70.559c-6.8398 6.8398-10.559 15.84-10.559 25.441s3.7188 18.602 10.559 25.441c13.559 13.559 37.32 13.559 50.879 0l70.559-70.559 70.559 70.559c13.559 13.559 37.32 13.559 50.879 0 6.8398-6.8398 10.559-15.84 10.559-25.441s-3.7188-18.602-10.559-25.441l-70.559-70.559 70.559-70.559c6.8398-6.8398 10.559-15.84 10.559-25.441z"/>
 </g>
</svg>
