<?xml version="1.0" encoding="UTF-8"?>
<svg width="1200pt" height="1200pt" version="1.1" viewBox="0 0 1200 1200" xmlns="http://www.w3.org/2000/svg">
 <path d="m860.53 120 12.797 0.09375c52.828 0.84375 73.875 7.2656 95.062 18.609 22.781 12.188 40.688 30.094 52.922 52.922l2.5312 4.875c10.547 21.375 16.172 45 16.172 102.98v381.05l-0.09375 12.797c-0.89062 52.828-7.3125 73.875-18.609 95.062-12.234 22.781-30.141 40.688-52.922 52.922l-4.9219 2.5312c-21.328 10.547-45 16.172-102.94 16.172l-37.969-0.046875v0.51562c0 49.031-5.2969 75.562-19.547 102.28-13.266 24.797-32.906 44.391-57.703 57.656-26.672 14.297-53.25 19.594-102.28 19.594h-256.13c-61.453 0-91.125-5.7656-122.02-22.266-28.031-15-50.203-37.172-65.203-65.203-16.5-30.891-22.266-60.609-22.266-122.02v-306.71l0.14062-13.312c0.79688-44.531 6.1875-68.484 19.453-93.281 13.219-24.797 32.859-44.391 57.656-57.656 27.141-14.531 53.297-19.594 106.59-19.594h18.703l0.046875-40.5c0-62.438 6.4688-85.031 18.703-107.86 12.188-22.828 30.094-40.734 52.922-52.922l4.875-2.5312c21.375-10.547 45-16.172 102.94-16.172zm-480.52 279.98h-18.75c-44.25 0-61.031 3.2344-78.281 12.516-14.344 7.6406-25.406 18.703-33.094 33.047-8.9062 16.688-12.234 32.906-12.469 73.969v311.02c0 52.359 3.9375 72.703 15.141 93.703 9.4219 17.578 23.062 31.219 40.641 40.594 21 11.25 41.344 15.188 93.703 15.188h256.13l11.906-0.14062c31.641-0.65625 46.922-4.2188 62.109-12.375 14.297-7.6406 25.359-18.703 33.047-33.047 9.0938-16.969 12.469-34.078 12.469-73.969v-0.51562l-228.74 0.046875-12.188-0.14062c-44.391-0.79688-62.25-6.2812-80.25-15.891-19.547-10.453-34.875-25.828-45.328-45.375-10.078-18.75-15.609-37.406-16.031-86.203zm179.44-219.98-11.297 0.046875c-39.141 0.51562-53.531 3.7031-68.25 11.578-12.328 6.6094-21.703 15.938-28.312 28.312l-2.0156 3.9844c-6.7031 14.203-9.3281 30.188-9.5625 69.75v417.74l0.14062 10.453c0.60938 27.516 3.1406 37.875 8.7656 48.422 4.875 9.1406 11.672 15.891 20.766 20.766l3.375 1.6875c10.969 5.1094 23.719 7.125 57 7.2656h330.47c47.859 0 63.516-3.0469 79.547-11.625 12.375-6.6094 21.703-15.938 28.312-28.312l2.0156-4.0312c6.75-14.156 9.375-30.141 9.5625-69.703l0.046875-386.86c0-47.859-3.0469-63.516-11.625-79.547-6.6094-12.375-15.938-21.703-28.312-28.312l-4.0312-2.0625c-14.156-6.7031-30.141-9.3281-69.703-9.5625zm230.53 380.02c16.594 0 30 13.406 30 30 0 16.547-13.406 30-30 30h-159.98c-16.547 0-30-13.453-30-30 0-16.594 13.453-30 30-30zm0-200.02c16.594 0 30 13.453 30 30s-13.406 30-30 30h-159.98c-16.547 0-30-13.453-30-30s13.453-30 30-30z"/>
</svg>
