<?xml version="1.0" encoding="UTF-8"?>
<svg width="1200pt" height="1200pt" version="1.1" viewBox="0 0 1200 1200" xmlns="http://www.w3.org/2000/svg">
 <path d="m739.5 99.984h-434.02c-70.688 0-127.97 57.328-127.97 128.02v588.98c0 70.688 57.281 128.02 127.97 128.02h434.02c33.938 0 66.516-13.5 90.516-37.5s37.5-56.531 37.5-90.516v-588.98c0-70.688-57.328-128.02-128.02-128.02zm60.516 717c-0.28125 32.109-26.391 58.031-58.5 58.031h-436.03c-31.031-1.3594-55.5-26.953-55.5-58.031v-588.98c0-31.078 24.469-56.672 55.5-57.984h434.02c15.75-0.5625 31.078 5.2969 42.469 16.219s17.906 25.969 18.047 41.766zm142.97-466.97c-5.7188-7.8281-7.9219-17.719-6-27.234 1.875-9.5156 7.6875-17.766 16.031-22.781 7.875-5.4375 17.672-7.4531 27.094-5.5781s17.672 7.5 22.875 15.562c11.906 17.906 18.938 38.578 20.531 60 1.4062 19.172-12.844 35.906-32.016 37.5h-3c-18.047-0.1875-32.953-14.016-34.5-31.969-1.6875-9.2344-5.4844-17.953-11.016-25.5zm-272.48 714.98c0 19.312-15.656 35.016-35.016 35.016h-90.984c-19.312 0-35.016-15.703-35.016-35.016s15.703-35.016 35.016-35.016h90.984c19.359 0 35.016 15.703 35.016 35.016zm182.02 0c0 19.312-15.703 35.016-35.016 35.016h-90.984c-19.359 0-35.016-15.703-35.016-35.016s15.656-35.016 35.016-35.016h90.984c9.2812 0 18.188 3.7031 24.75 10.266s10.266 15.469 10.266 24.75zm157.5-38.484c-17.625 39.047-53.672 66.656-96 73.5h-5.5312c-18-0.46875-32.766-14.484-34.078-32.484-1.2656-18 11.297-34.031 29.109-37.031 19.172-2.9062 35.531-15.328 43.5-33 8.2969-17.344 29.062-24.703 46.5-16.5 16.969 8.1094 24.328 28.359 16.5 45.516zm12.516-560.02v90.984h-0.046875c0 19.359-15.656 35.016-34.969 35.016-19.359 0-35.016-15.656-35.016-35.016v-90.984c0-19.312 15.656-35.016 35.016-35.016 19.312 0 34.969 15.703 34.969 35.016zm0 182.02v90.984h-0.046875c0 19.312-15.656 35.016-34.969 35.016-19.359 0-35.016-15.703-35.016-35.016v-89.484c0-19.359 15.656-35.016 35.016-35.016 19.312 0 34.969 15.656 34.969 35.016zm0 182.02v91.5l-0.046875-0.046875c0 19.359-15.656 35.016-34.969 35.016-19.359 0-35.016-15.656-35.016-35.016v-91.5c0-19.312 15.656-34.969 35.016-34.969 19.312 0 34.969 15.656 34.969 34.969zm-535.03 236.95c-1.3125 18.094-16.359 32.062-34.5 32.016h-3c-21.375-1.7812-42-8.8594-60-20.484-7.7344-5.1094-13.172-13.078-15.047-22.172-1.875-9.1406-0.046875-18.609 5.0625-26.344 10.594-16.172 32.344-20.625 48.469-9.9844 8.25 5.4375 17.672 8.6719 27.516 9.4688 9.1406 0.79688 17.625 5.1562 23.578 12.188 5.9062 7.0781 8.7656 16.172 7.9219 25.312z"/>
</svg>
