<svg width="20" height="20" viewBox="0 0 20 20" fill="none" xmlns="http://www.w3.org/2000/svg">
<path d="M6.55464 3.53627C7.49663 2.91354 8.58975 2.55765 9.71781 2.50643C10.8459 2.45521 11.9667 2.71057 12.9613 3.24537C13.9558 3.78017 14.7869 4.57443 15.3662 5.54375C15.9455 6.51306 16.2514 7.62121 16.2513 8.75044C16.2513 11.1838 15.788 13.5079 14.9446 15.6404M4.7863 5.30377C4.10927 6.3256 3.7492 7.52467 3.7513 8.75044C3.75327 9.92796 3.42094 11.0818 2.79297 12.0779M4.45047 15.0438C6.01466 13.3213 6.87971 11.0771 6.8763 8.75044C6.8763 7.92164 7.20554 7.12678 7.79159 6.54073C8.37764 5.95468 9.1725 5.62544 10.0013 5.62544C10.8301 5.62544 11.625 5.95468 12.211 6.54073C12.7971 7.12678 13.1263 7.92164 13.1263 8.75044C13.1263 9.1896 13.1088 9.6246 13.073 10.0546M10.0013 8.75044C10.006 11.7305 8.94149 14.6134 7.0013 16.8754M12.5288 13.0454C12.0776 14.6261 11.3786 16.1253 10.458 17.4871" stroke="white" stroke-width="1.5" stroke-linecap="round" stroke-linejoin="round"/>
</svg>
