<svg width="20" height="20" viewBox="0 0 20 20" fill="none" xmlns="http://www.w3.org/2000/svg">
<g clip-path="url(#clip0_536_24695)">
<circle cx="10" cy="10" r="7.25" stroke="white" stroke-width="1.5"/>
<path d="M10 1.875C8.39303 1.875 6.82214 2.35152 5.486 3.24431C4.14985 4.1371 3.10844 5.40605 2.49348 6.8907C1.87852 8.37535 1.71762 10.009 2.03112 11.5851C2.34463 13.1612 3.11846 14.6089 4.25476 15.7452C5.39106 16.8815 6.8388 17.6554 8.4149 17.9689C9.99099 18.2824 11.6247 18.1215 13.1093 17.5065C14.594 16.8916 15.8629 15.8502 16.7557 14.514C17.6485 13.1779 18.125 11.607 18.125 10C18.1227 7.84581 17.266 5.78051 15.7427 4.25727C14.2195 2.73403 12.1542 1.87727 10 1.875ZM3.125 10C3.12707 8.17727 3.85206 6.42979 5.14093 5.14092C6.42979 3.85206 8.17727 3.12707 10 3.125V16.875C8.17727 16.8729 6.42979 16.1479 5.14093 14.8591C3.85206 13.5702 3.12707 11.8227 3.125 10Z" fill="white"/>
</g>
<defs>
<clipPath id="clip0_536_24695">
<rect width="20" height="20" fill="white"/>
</clipPath>
</defs>
</svg>
