<svg fill="none" height="15" viewBox="0 0 15 15" width="15" xmlns="http://www.w3.org/2000/svg"><path clip-rule="evenodd" d="m12.8536 2.14645c.1952.19526.1952.51184 0 .7071l-10.00005 10.00005c-.19526.1952-.51184.1952-.7071 0-.19527-.1953-.19527-.5119 0-.7072l.85355-.8535v-7.7929c0-.27614.22386-.5.5-.5h7.7929l.8535-.85355c.1953-.19527.5119-.19527.7072 0zm-2.5607 1.85355h-6.2929v6.2929zm1.7071 2v5.5c0 .2761-.2239.5-.5.5h-5c-.27614 0-.5-.2239-.5-.5s.22386-.5.5-.5h4.5v-5c0-.27614.2239-.5.5-.5s.5.22386.5.5z" fill="#151515" fill-rule="evenodd"/></svg>