<svg width="20" height="20" viewBox="0 0 20 20" fill="none" xmlns="http://www.w3.org/2000/svg">
<g clip-path="url(#clip0_574_13772)">
<path d="M6.2448 16.4929C7.82021 17.4047 9.67346 17.7125 11.459 17.3588C13.2446 17.0051 14.8405 16.0141 15.9494 14.5706C17.0582 13.1271 17.6043 11.3295 17.4857 9.51317C17.3672 7.69679 16.5921 5.98552 15.305 4.69842C14.0178 3.41131 12.3066 2.63622 10.4902 2.51765C8.67382 2.39908 6.87631 2.94512 5.4328 4.05398C3.98929 5.16283 2.9983 6.75882 2.6446 8.54436C2.29091 10.3299 2.59864 12.1832 3.51042 13.7586L2.53308 16.6765C2.49635 16.7867 2.49102 16.9048 2.51769 17.0178C2.54435 17.1308 2.60195 17.2341 2.68404 17.3162C2.76612 17.3983 2.86944 17.4559 2.98242 17.4826C3.09541 17.5092 3.21358 17.5039 3.3237 17.4672L6.2448 16.4929Z" stroke="white" stroke-width="1.5" stroke-linecap="round" stroke-linejoin="round"/>
<g clip-path="url(#clip1_574_13772)">
<path d="M7.46875 10.2115H12.625" stroke="white" stroke-width="1.5" stroke-linecap="round" stroke-linejoin="round"/>
<path d="M10.0469 7.63342V12.7897" stroke="white" stroke-width="1.5" stroke-linecap="round" stroke-linejoin="round"/>
</g>
</g>
<defs>
<clipPath id="clip0_574_13772">
<rect width="20" height="20" fill="white"/>
</clipPath>
<clipPath id="clip1_574_13772">
<rect width="7.5" height="7.5" fill="white" transform="translate(6.29688 6.46155)"/>
</clipPath>
</defs>
</svg>
