<?xml version="1.0" encoding="UTF-8"?>
<svg width="1200pt" height="1200pt" version="1.1" viewBox="0 0 1200 1200" xmlns="http://www.w3.org/2000/svg">
 <path d="m185.29 510.47c9.5625 0 18.938 0.75 28.031 2.25l37.547-112.64c-15.703-8.2031-30-18.703-42.422-31.125-31.359-31.312-50.719-74.672-50.719-122.48 0-47.859 19.406-91.172 50.719-122.48 31.359-31.359 74.672-50.719 122.48-50.719 47.859 0 91.172 19.406 122.53 50.719 26.344 26.344 44.25 61.125 49.266 99.984l341.76 9.8906c6.6094-34.828 23.625-66 47.719-90.094 31.359-31.359 74.672-50.719 122.53-50.719 47.812 0 91.125 19.406 122.48 50.719 31.359 31.359 50.719 74.672 50.719 122.48 0 47.859-19.406 91.172-50.719 122.48-31.359 31.359-74.672 50.766-122.48 50.766-8.4375 0-16.688-0.60938-24.75-1.7812l-43.594 139.5c16.828 8.3906 32.062 19.453 45.234 32.578 31.359 31.359 50.719 74.672 50.719 122.53 0 47.812-19.406 91.125-50.719 122.48-31.359 31.312-74.672 50.719-122.48 50.719-47.578 0-90.656-19.172-121.97-50.203l-84.188 67.969c10.078 19.266 15.75 41.156 15.75 64.359 0 38.391-15.609 73.219-40.781 98.438-25.219 25.219-60 40.734-98.438 40.734-38.391 0-73.219-15.609-98.438-40.734-25.219-25.219-40.734-60-40.734-98.438 0-27.609 8.0156-53.297 21.891-74.953l-112.45-108.42-1.9219 1.9219c-31.359 31.359-74.672 50.719-122.53 50.719-47.812 0-91.125-19.406-122.48-50.719-31.359-31.359-50.719-74.672-50.719-122.48 0-47.859 19.406-91.172 50.719-122.48 31.359-31.359 74.672-50.719 122.48-50.719zm291.05-169.82 284.16 256.6c29.719-23.906 67.406-38.203 108.52-38.203 8.3906 0 16.688 0.60938 24.75 1.7812l43.594-139.5c-16.828-8.3906-32.062-19.453-45.234-32.578-26.344-26.344-44.25-61.125-49.266-99.984l-341.76-9.8906c-4.2656 22.406-12.797 43.359-24.797 61.828zm247.26 297.42-284.16-256.6c-29.719 23.859-67.406 38.203-108.52 38.203-9.5625 0-18.891-0.79688-28.031-2.25l-37.547 112.64c15.703 8.2031 30 18.703 42.422 31.125 27.984 27.938 46.406 65.438 50.062 107.16l342.47 24.328c4.5938-19.734 12.609-38.109 23.297-54.609zm-9 172.78c-9.8438-19.266-16.172-40.641-18.141-63.234l-342.52-24.328c-2.8594 12.328-7.0781 24.141-12.469 35.297l118.78 114.52c22.453-15.562 49.734-24.703 79.125-24.703 33.797 0 64.781 12.047 88.875 32.062l86.25-69.656zm383.63-628.13c-21.328-21.328-50.906-34.594-83.531-34.594s-62.156 13.219-83.531 34.594-34.594 50.906-34.594 83.531 13.219 62.156 34.594 83.531 50.906 34.594 83.531 34.594 62.156-13.219 83.531-34.594 34.594-50.906 34.594-83.531-13.219-62.156-34.594-83.531zm-683.76-19.781c-21.328-21.375-50.906-34.594-83.531-34.594s-62.156 13.219-83.531 34.594c-21.328 21.375-34.594 50.906-34.594 83.531s13.219 62.156 34.594 83.531c21.375 21.328 50.906 34.594 83.531 34.594s62.156-13.219 83.531-34.594 34.594-50.906 34.594-83.531-13.219-62.156-34.594-83.531zm184.45 765.24c-15.188-15.188-36.234-24.609-59.484-24.609-23.203 0-44.25 9.375-59.438 24.609-15.188 15.188-24.609 36.234-24.609 59.484 0 23.203 9.375 44.25 24.609 59.438 15.188 15.234 36.234 24.609 59.438 24.609s44.25-9.375 59.484-24.609c15.188-15.188 24.609-36.234 24.609-59.438s-9.375-44.25-24.609-59.484zm353.68-279.42c-21.375-21.375-50.906-34.594-83.531-34.594s-62.156 13.219-83.531 34.594c-21.375 21.328-34.594 50.906-34.594 83.531s13.219 62.156 34.594 83.531 50.906 34.594 83.531 34.594 62.156-13.219 83.531-34.594c21.328-21.328 34.594-50.906 34.594-83.531s-13.219-62.156-34.594-83.531zm-683.76-48.609c-21.328-21.375-50.906-34.594-83.531-34.594s-62.156 13.219-83.531 34.594-34.594 50.906-34.594 83.531 13.219 62.156 34.594 83.531c21.328 21.328 50.906 34.594 83.531 34.594s62.156-13.219 83.531-34.594 34.594-50.906 34.594-83.531-13.219-62.156-34.594-83.531z"/>
</svg>
