<?xml version="1.0" encoding="UTF-8"?>
<svg width="1200pt" height="1200pt" version="1.1" viewBox="0 0 1200 1200" xmlns="http://www.w3.org/2000/svg">
 <path d="m450 975h-222.32c-29.812 0-58.453-11.859-79.547-32.953s-32.953-49.688-32.953-79.547v-562.5c0-29.812 11.859-58.453 32.953-79.547s49.734-32.953 79.547-32.953h71.484c19.359-65.016 79.547-112.5 150.84-112.5 71.25 0 131.53 47.484 150.84 112.5h74.156c29.812 0 58.453 11.859 79.547 32.953s32.953 49.734 32.953 79.547v150h187.5c29.438 0 57.516 10.875 78.328 29.906 22.078 20.156 34.172 47.672 34.172 76.172v462.84c0 28.5-12.094 56.016-34.172 76.172-20.812 18.984-48.891 29.906-78.328 29.906h-412.5c-29.438 0-57.516-10.922-78.328-29.906-22.078-20.156-34.172-47.672-34.172-76.172zm225-712.5h-447.32c-9.9375 0-19.5 3.9375-26.531 10.969-6.9844 7.0312-10.969 16.594-10.969 26.531v562.5c0 9.9375 3.9844 19.453 10.969 26.531 7.0312 7.0312 16.594 10.969 26.531 10.969h222.32v-343.92c0-28.5 12.094-56.016 34.172-76.172 20.812-19.031 48.891-29.906 78.328-29.906h150v-150c0-9.9375-3.9375-19.5-10.969-26.531s-16.594-10.969-26.531-10.969zm-155.9-75c-14.672-22.547-40.172-37.5-69.094-37.5s-54.375 14.953-69.094 37.5h138.19zm5.9062 368.58v462.84c0 7.875 3.7031 15.234 9.75 20.812 7.3594 6.7031 17.391 10.266 27.75 10.266h412.5c10.359 0 20.391-3.5625 27.75-10.266 6.0469-5.5781 9.75-12.938 9.75-20.812v-462.84c0-7.875-3.7031-15.281-9.75-20.812-7.3594-6.7031-17.391-10.266-27.75-10.266h-412.5c-10.359 0-20.391 3.5625-27.75 10.266-6.0469 5.5312-9.75 12.938-9.75 20.812zm127.69 268.92c-20.719 0-37.5-16.828-37.5-37.5 0-20.719 16.781-37.5 37.5-37.5h232.13c20.719 0 37.5 16.781 37.5 37.5 0 20.672-16.781 37.5-37.5 37.5zm0 150c-20.719 0-37.5-16.781-37.5-37.5s16.781-37.5 37.5-37.5h232.13c20.719 0 37.5 16.781 37.5 37.5s-16.781 37.5-37.5 37.5zm0-300c-20.719 0-37.5-16.828-37.5-37.5 0-20.719 16.781-37.5 37.5-37.5h232.13c20.719 0 37.5 16.781 37.5 37.5 0 20.672-16.781 37.5-37.5 37.5z" fill-rule="evenodd"/>
</svg>
