<svg width="12" height="20" viewBox="0 0 12 20" fill="none" xmlns="http://www.w3.org/2000/svg">
<path d="M4.75 1.25H2.875C2.37772 1.25 1.90081 1.44754 1.54917 1.79917C1.19754 2.15081 1 2.62772 1 3.125V16.875C1 17.3723 1.19754 17.8492 1.54917 18.2008C1.90081 18.5525 2.37772 18.75 2.875 18.75H9.125C9.62228 18.75 10.0992 18.5525 10.4508 18.2008C10.8025 17.8492 11 17.3723 11 16.875V3.125C11 2.62772 10.8025 2.15081 10.4508 1.79917C10.0992 1.44754 9.62228 1.25 9.125 1.25H7.25M4.75 1.25V2.5H7.25V1.25M4.75 1.25H7.25M4.75 16.875H7.25" stroke="white" stroke-width="1.5" stroke-linecap="round" stroke-linejoin="round"/>
</svg>
