<?xml version="1.0" encoding="UTF-8"?>
<svg width="1200pt" height="1200pt" version="1.1" viewBox="0 0 1200 1200" xmlns="http://www.w3.org/2000/svg">
 <path d="m744 943.92 177.96-177.96c9.0117-9.0039 14.078-21.223 14.078-33.961s-5.0664-24.957-14.078-33.961l-177.96-177.96-67.922 67.922 96 96h-244.08c-44.555 0-87.289-17.699-118.79-49.207-31.508-31.504-49.207-74.238-49.207-118.79s17.699-87.289 49.207-118.79c31.504-31.508 74.238-49.207 118.79-49.207h216v-96h-216c-70.016 0-137.17 27.812-186.68 77.324-49.512 49.508-77.324 116.66-77.324 186.68s27.812 137.17 77.324 186.68c49.508 49.512 116.66 77.324 186.68 77.324h244.08l-96 96z"/>
</svg>
