<?xml version="1.0" encoding="UTF-8"?>
<svg width="1200pt" height="1200pt" version="1.1" viewBox="0 0 1200 1200" xmlns="http://www.w3.org/2000/svg">
 <path d="m1017.8 814.12c0 119.25-179.62 209.25-417.75 209.25s-417.75-90-417.75-209.25c0-98.625 126-178.5 308.62-201.75l-37.5-25.875c-10.984-7.8359-16.957-20.941-15.66-34.375 1.293-13.43 9.6562-25.152 21.938-30.75 12.277-5.5938 26.613-4.2109 37.598 3.625l124.12 87c9.457 6.5273 15.402 17.031 16.125 28.5 0.64062 11.359-3.9141 22.395-12.375 30l-112.5 102c-6.9336 6.1133-15.879 9.4531-25.125 9.375-10.523 0.070312-20.594-4.2852-27.75-12-6.7656-7.3867-10.293-17.172-9.8008-27.172 0.49609-10.004 4.9688-19.395 12.426-26.078l32.625-29.25c-143.25 19.5-237.75 77.25-237.75 126.38 0 63.375 146.62 134.25 342.75 134.25s342.75-70.875 342.75-134.25c-3.3008-22.48-16.152-42.441-35.25-54.75-7.8398-6.0781-12.953-15.016-14.219-24.855-1.2656-9.8398 1.4219-19.781 7.4688-27.645 6.0781-7.8398 15.016-12.953 24.855-14.219 9.8398-1.2656 19.781 1.4219 27.645 7.4688 38.598 25.578 62.586 68.113 64.5 114.38zm-772.12-228.75c6.5977 5.293 14.793 8.1992 23.25 8.25 12.129 0.44922 23.73-5 31.125-14.625 6.4141-8.0977 9.207-18.48 7.7148-28.699-1.4922-10.223-7.1289-19.375-15.59-25.301-19.102-12.242-31.855-32.266-34.875-54.75 0-40.875 64.125-85.875 159.38-112.5 9.9023-2.3086 18.445-8.5391 23.668-17.262 5.2227-8.7266 6.6758-19.199 4.0312-29.016-2.6445-9.8203-9.1641-18.141-18.062-23.062-8.8984-4.9219-19.414-6.0156-29.137-3.0352-134.62 37.5-214.88 104.62-214.88 183.75 0.875 46.773 24.535 90.172 63.375 116.25zm418.88-154.12c7.0312 6.2031 16.129 9.5469 25.5 9.375 10.523 0.070312 20.594-4.2852 27.75-12 6.8828-7.4023 10.484-17.27 9.9883-27.367-0.49219-10.094-5.043-19.562-12.613-26.258l-37.5-33.375c158.62 15.75 264.75 76.875 264.75 129.75-3.2461 22.602-16.098 42.695-35.25 55.125-29.895 22.141-63.566 38.66-99.375 48.75-17.977 5.8516-36.25 10.734-54.75 14.625-9.6797 2.0703-18.145 7.8867-23.555 16.176-5.4102 8.2891-7.3203 18.379-5.3203 28.074 1.7539 8.5977 6.4648 16.309 13.316 21.789 6.8516 5.4844 15.41 8.3867 24.184 8.2109 2.6133 0.36328 5.2617 0.36328 7.875 0 20.898-4.2656 41.555-9.6484 61.875-16.125 44.391-12.871 86.07-33.711 123-61.5 37.75-25.398 61.363-67.066 63.75-112.5 0-103.12-134.25-184.12-327.38-204l32.625-22.875c11.32-7.7695 17.637-20.992 16.566-34.68-1.0664-13.691-9.3594-25.77-21.75-31.688-12.391-5.918-26.996-4.7773-38.316 2.9922l-124.12 87c-9.3516 6.5312-15.227 16.965-15.953 28.348-0.73047 11.383 3.7617 22.48 12.203 30.152z"/>
</svg>
