<?xml version="1.0" encoding="UTF-8"?>
<svg width="1200pt" height="1200pt" version="1.1" viewBox="0 0 1200 1200" xmlns="http://www.w3.org/2000/svg">
 <path d="m283.08 405.12c-19.879 19.871-31.047 46.828-31.047 74.938s11.168 55.07 31.047 74.941l126.96 126.96c12.133 12.133 29.816 16.871 46.391 12.43 16.574-4.4414 29.52-17.387 33.961-33.961 4.4414-16.574-0.29688-34.258-12.43-46.391l-86.039-86.039h304.08c55.734 0 107.23 29.734 135.1 78 27.863 48.266 27.863 107.73 0 156-27.867 48.266-79.367 78-135.1 78h-348c-17.148 0-32.996 9.1484-41.57 24-8.5742 14.852-8.5742 33.148 0 48 8.5742 14.852 24.422 24 41.57 24h348c66.836 0 130.93-26.551 178.19-73.809 47.258-47.258 73.809-111.36 73.809-178.19s-26.551-130.93-73.809-178.19c-47.258-47.258-111.36-73.809-178.19-73.809h-304.08l86.039-86.039c12.133-12.133 16.871-29.816 12.43-46.391-4.4414-16.574-17.387-29.52-33.961-33.961-16.574-4.4414-34.258 0.29688-46.391 12.43z"/>
</svg>
