<?xml version="1.0" encoding="UTF-8"?>
<svg width="1200pt" height="1200pt" version="1.1" viewBox="0 0 1200 1200" xmlns="http://www.w3.org/2000/svg">
 <g>
  <path d="m635.67 434h-71.336v130.33h-130.33v71.336h130.33v130.33h71.336v-130.33h130.33v-71.336h-130.33z"/>
  <path d="m813.33 66.668h-426.66c-84.844 0.085937-166.18 33.828-226.18 93.82-59.992 59.996-93.734 141.34-93.82 226.18v426.66c0.085937 84.844 33.828 166.18 93.82 226.18 59.996 59.992 141.34 93.734 226.18 93.82h426.66c84.844-0.085937 166.18-33.828 226.18-93.82 59.992-59.996 93.734-141.34 93.82-226.18v-426.66c-0.085937-84.844-33.828-166.18-93.82-226.18-59.996-59.992-141.34-93.734-226.18-93.82zm249 746.67v-0.003907c-0.085937 66.012-26.348 129.3-73.027 175.97-46.676 46.68-109.96 72.941-175.97 73.027h-426.66c-66.012-0.085937-129.3-26.348-175.97-73.027-46.68-46.676-72.941-109.96-73.027-175.97v-426.66c0.085937-66.012 26.348-129.3 73.027-175.97 46.676-46.68 109.96-72.941 175.97-73.027h426.66c66.012 0.085937 129.3 26.348 175.97 73.027 46.68 46.676 72.941 109.96 73.027 175.97z"/>
 </g>
</svg>
