<?xml version="1.0" encoding="UTF-8"?>
<svg width="1200pt" height="1200pt" version="1.1" viewBox="0 0 1200 1200" xmlns="http://www.w3.org/2000/svg">
 <g>
  <path d="m983.02 930.82c0 28.477-23.086 51.562-51.562 51.562-28.477 0-51.562-23.086-51.562-51.562 0-28.477 23.086-51.562 51.562-51.562 28.477 0 51.562 23.086 51.562 51.562"/>
  <path d="m964.6 234.77c-202.69-202.69-533.52-201.03-734.11 4.9766-186.84 191.88-194.48 501.09-16.645 701.35 155.82 175.47 404.07 222.04 609.05 123.32 24.602-11.848 33.051-42.863 18.879-66.207-12.707-20.93-39.109-28-61.219-17.48-170.92 81.336-378.1 39.602-504.52-111.05-128.23-152.81-130.39-379.52-4.9336-534.62 160-197.8 452.07-209.14 627.2-34 127.64 127.64 159.14 319.3 82.906 479.16-10.477 21.977-3.2695 48.238 17.543 60.875l0.14062 0.085938c23.27 14.129 54.223 5.8125 66.047-18.707 94.406-195.82 56.195-431.17-100.35-587.71z"/>
 </g>
</svg>
