<?xml version="1.0" encoding="UTF-8"?>
<svg width="1200pt" height="1200pt" version="1.1" viewBox="0 0 1200 1200" xmlns="http://www.w3.org/2000/svg">
 <path d="m250 100c-82.844 0-150 67.156-150 150 0 65.312 41.742 120.87 100 141.46v200.5c0 53.828 28.844 103.53 75.578 130.23l216.44 123.68c-26.016 26.973-42.02 63.672-42.02 104.11 0 82.844 67.156 150 150 150s150-67.156 150-150c0-40.441-16-77.141-42.02-104.11l216.44-123.68c46.734-26.703 75.578-76.406 75.578-130.23v-200.5c58.262-20.594 100-76.152 100-141.46 0-82.844-67.156-150-150-150s-150 67.156-150 150c0 65.312 41.738 120.87 100 141.46v200.5c0 17.941-9.6133 34.512-25.195 43.41l-250 142.86c-15.371 8.7852-34.238 8.7852-49.609 0l-250-142.86c-15.578-8.8984-25.191-25.469-25.191-43.41v-200.5c58.258-20.594 100-76.152 100-141.46 0-82.844-67.156-150-150-150zm-50 150c0-27.613 22.387-50 50-50s50 22.387 50 50-22.387 50-50 50-50-22.387-50-50zm350 700c0-27.613 22.387-50 50-50s50 22.387 50 50-22.387 50-50 50-50-22.387-50-50zm400-750c-27.613 0-50 22.387-50 50s22.387 50 50 50 50-22.387 50-50-22.387-50-50-50z" fill-rule="evenodd"/>
</svg>
