<?xml version="1.0" encoding="UTF-8"?>
<svg width="1200pt" height="1200pt" version="1.1" viewBox="0 0 1200 1200" xmlns="http://www.w3.org/2000/svg">
 <g>
  <path d="m900 252c-12.469-12.465-28.539-20.688-45.941-23.508-17.402-2.8242-35.25-0.097657-51.02 7.7891l-96 48c-14.156 6.9336-26.074 17.715-34.391 31.105-8.3203 13.391-12.703 28.852-12.648 44.613v129.12l-104.76 104.76-8.0391-4.6797v-0.003906c-27.609-16.383-59.098-25.082-91.199-25.199-22.109-0.097656-43.367 8.5273-59.16 24l-131.52 132c-8.8828 8.6016-16.156 18.719-21.48 29.879-12.203 24.84-17.582 52.48-15.578 80.086 2.0039 27.602 11.316 54.176 26.977 76.996 15.051 21.902 35.613 39.453 59.609 50.871s50.582 16.305 77.074 14.168c37.59-3.7031 72.621-20.727 98.758-48l121.32-120c15.68-16 24.32-37.602 24-60-0.039062-32.172-8.6992-63.75-25.078-91.441l-4.6797-8.0391 104.64-104.52h129.12c15.598-0.003906 30.887-4.3477 44.156-12.551 13.266-8.2031 23.988-19.938 30.965-33.891l48-96c8.1016-15.773 11-33.711 8.2852-51.234-2.7188-17.523-10.91-33.742-23.406-46.324zm-336 496.92-127.68 127.08c-14.191 17.777-35.285 28.664-57.996 29.934-22.715 1.2695-44.891-7.1992-60.973-23.285-16.086-16.082-24.555-38.258-23.285-60.973 1.2695-22.711 12.156-43.805 29.934-57.996l127.08-127.68h4.9219c28.645 0 56.113 11.379 76.367 31.633 20.254 20.254 31.633 47.723 31.633 76.367zm283.44-280.92h-115.44v-115.44l110.4-55.199 60 60z"/>
  <path d="m348 240c-28.645 0-56.113 11.379-76.367 31.633-20.254 20.254-31.633 47.723-31.633 76.367v105.96c-0.23047 9.2148 2.9453 18.195 8.9258 25.215s14.336 11.586 23.473 12.824c10.109 0.91016 20.133-2.4883 27.602-9.3594 7.5859-6.7852 11.945-16.465 12-26.641v-108c0-9.5469 3.793-18.703 10.543-25.457 6.7539-6.75 15.91-10.543 25.457-10.543h105.96c9.2148 0.23047 18.195-2.9453 25.215-8.9258s11.586-14.336 12.824-23.473c1.0195-10.156-2.3164-20.266-9.1836-27.816-6.8633-7.5547-16.609-11.836-26.816-11.785z"/>
  <path d="m852 960c28.645 0 56.113-11.379 76.367-31.633 20.254-20.254 31.633-47.723 31.633-76.367v-108c-0.054688-10.176-4.4141-19.855-12-26.641-7.4688-6.8711-17.492-10.27-27.602-9.3594-9.1367 1.2383-17.492 5.8047-23.473 12.824s-9.1562 16-8.9258 25.215v105.96c0 9.5469-3.793 18.703-10.543 25.457-6.7539 6.75-15.91 10.543-25.457 10.543h-105.96c-9.2148-0.23047-18.195 2.9453-25.215 8.9258s-11.586 14.336-12.824 23.473c-1.0195 10.156 2.3164 20.266 9.1836 27.816 6.8633 7.5547 16.609 11.836 26.816 11.785z"/>
 </g>
</svg>
