<?xml version="1.0" encoding="UTF-8"?>
<svg width="1200pt" height="1200pt" version="1.1" viewBox="0 0 1200 1200" xmlns="http://www.w3.org/2000/svg">
 <g>
  <path d="m681.6 319.2c-25.199-25.199-64.801-25.199-90 0-25.199 25.199-25.199 64.801 0 90l127.2 127.2h-624c-34.801 0-63.602 28.801-63.602 63.602s28.801 63.602 63.602 63.602h624l-127.2 127.2c-25.199 25.199-25.199 64.801 0 90 12 12 28.801 19.199 45.602 19.199s32.398-6 45.602-19.199l236.4-236.4c12-12 19.199-27.602 19.199-45.602 0-16.801-7.1992-33.602-19.199-45.602z"/>
  <path d="m1105.2 339.6c-36 0-64.801 28.801-64.801 64.801v391.2c0 36 28.801 64.801 64.801 64.801s64.801-28.801 64.801-64.801v-391.2c0-36-28.801-64.797-64.801-64.797z"/>
 </g>
</svg>
