<?xml version="1.0" encoding="UTF-8"?>
<svg width="1200pt" height="1200pt" version="1.1" viewBox="0 0 1200 1200" xmlns="http://www.w3.org/2000/svg">
 <g>
  <path d="m600 50.016c-303.32 0-549.98 246.66-549.98 549.98s246.66 549.98 549.98 549.98 549.98-246.66 549.98-549.98-246.66-549.98-549.98-549.98zm365.34 797.48c6.5156 6.5156 6.5156 17.016 0 23.484l-94.312 94.312c-3.1875 3.3281-7.5 4.8281-11.672 4.8281-4.3125 0-8.6719-1.5-11.812-4.8281l-157.69-157.69c-12.516 15-28.5 26.672-46.828 33.984 43.172 17.156 73.688 59.156 73.688 108.33v16.688c0 64.312-52.312 116.67-116.67 116.67-64.312 0-116.67-52.312-116.67-116.67v-16.688c0-49.172 30.516-91.172 73.688-108.33-18.328-7.3125-34.312-18.984-46.828-33.984l-157.69 157.69c-3.1875 3.3281-7.5 4.8281-11.812 4.8281-4.1719 0-8.4844-1.5-11.672-4.8281l-94.312-94.312c-6.5156-6.5156-6.5156-17.016 0-23.484l247.5-247.5-247.5-247.5c-6.5156-6.5156-6.5156-17.016 0-23.484l94.312-94.312c6.5156-6.5156 17.016-6.5156 23.484 0l130.82 130.82v-132.19c0-64.312 52.312-116.67 116.67-116.67 64.312 0 116.67 52.312 116.67 116.67v132.19l130.82-130.82c6.5156-6.5156 17.016-6.5156 23.484 0l94.312 94.312c6.5156 6.5156 6.5156 17.016 0 23.484l-247.5 247.5z"/>
  <path d="m600 816.66c-45.938 0-83.344-37.406-83.344-83.344v-499.97c0-45.938 37.406-83.344 83.344-83.344s83.344 37.406 83.344 83.344v500.02c0 45.938-37.406 83.344-83.344 83.344zm0-633.32c-27.562 0-50.016 22.406-50.016 50.016v500.02c0 27.562 22.406 50.016 50.016 50.016 27.562 0 50.016-22.406 50.016-50.016v-500.02c0-27.562-22.406-50.016-50.016-50.016z"/>
  <path d="m600 1050c-45.938 0-83.344-37.406-83.344-83.344v-16.688c0-45.938 37.406-83.344 83.344-83.344s83.344 37.406 83.344 83.344v16.688c0 45.938-37.406 83.344-83.344 83.344zm0-150c-27.562 0-50.016 22.406-50.016 50.016v16.688c0 27.562 22.406 50.016 50.016 50.016 27.562 0 50.016-22.406 50.016-50.016v-16.688c0-27.562-22.406-50.016-50.016-50.016z"/>
 </g>
</svg>
