<?xml version="1.0" encoding="UTF-8"?>
<svg width="1200pt" height="1200pt" version="1.1" viewBox="0 0 1200 1200" xmlns="http://www.w3.org/2000/svg">
 <g>
  <path d="m250.56 922.56c-6.7383 6.75-10.527 15.902-10.527 25.441s3.7891 18.691 10.527 25.441l12 12c19.484 19.52 45.273 31.477 72.762 33.738 27.488 2.2656 54.887-5.3164 77.301-21.391 22.41-16.074 38.383-39.59 45.059-66.348l41.398-163.44h76.922c12.863 0 24.746-6.8633 31.176-18 6.4336-11.137 6.4336-24.863 0-36-6.4297-11.137-18.312-18-31.176-18h-58.922l30.602-122.4c2.5156-10.227 8.5938-19.219 17.141-25.367 8.5469-6.1484 19.008-9.0508 29.5-8.1836 10.496 0.86328 20.336 5.4414 27.758 12.91l12 12c6.8555 6.543 15.965 10.195 25.441 10.195 9.4766 0 18.586-3.6523 25.441-10.195 6.7422-6.75 10.527-15.902 10.527-25.441 0-9.5391-3.7852-18.691-10.527-25.441l-12-12c-19.484-19.52-45.273-31.477-72.762-33.738-27.488-2.2617-54.887 5.3203-77.297 21.391-22.414 16.074-38.387 39.59-45.062 66.348l-34.918 139.92h-82.922c-12.863 0-24.746 6.8633-31.176 18-6.4336 11.137-6.4336 24.863 0 36 6.4297 11.137 18.312 18 31.176 18h64.922l-36.602 146.4c-2.5156 10.227-8.5938 19.219-17.141 25.367-8.5469 6.1484-19.008 9.0508-29.5 8.1836-10.496-0.86328-20.336-5.4414-27.758-12.91l-12-12c-6.75-6.7422-15.902-10.527-25.441-10.527-9.5391 0-18.691 3.7852-25.441 10.527z"/>
  <path d="m960 384c0-41.375-16.438-81.055-45.691-110.31s-68.934-45.691-110.31-45.691h-372c-41.375 0-81.055 16.438-110.31 45.691s-45.691 68.934-45.691 110.31v120c0 12.863 6.8633 24.746 18 31.176 11.137 6.4336 24.863 6.4336 36 0 11.137-6.4297 18-18.312 18-31.176v-120c0-22.277 8.8516-43.645 24.602-59.398 15.754-15.75 37.121-24.602 59.398-24.602h372c22.277 0 43.645 8.8516 59.398 24.602 15.75 15.754 24.602 37.121 24.602 59.398v372c0 22.277-8.8516 43.645-24.602 59.398-15.754 15.75-37.121 24.602-59.398 24.602h-84c-12.863 0-24.746 6.8633-31.176 18-6.4336 11.137-6.4336 24.863 0 36 6.4297 11.137 18.312 18 31.176 18h84c41.375 0 81.055-16.438 110.31-45.691s45.691-68.934 45.691-110.31z"/>
 </g>
</svg>
