<?xml version="1.0" encoding="UTF-8"?>
<svg width="1200pt" height="1200pt" version="1.1" viewBox="0 0 1200 1200" xmlns="http://www.w3.org/2000/svg">
 <path d="m1150 650.02h-200.02l0.046875-317.21c0-66.75-26.016-129.56-73.219-176.76l-82.828-82.875c-47.203-47.203-110.02-73.219-176.81-73.219l-367.18 0.046875c-137.81 0-249.98 112.17-249.98 249.98v699.98c0 137.86 112.17 249.98 249.98 249.98l450 0.046875c137.86 0 249.98-112.17 249.98-249.98v-200.02h200.02c27.656 0 50.016-22.406 50.016-50.016s-22.359-50.016-50.016-50.016zm-343.92-423.24c20.062 20.062 33.703 45.75 39.938 73.219h-96c-55.125 0-99.984-44.859-99.984-99.984v-96.094c27.516 6.1406 52.828 19.641 73.219 40.031l82.828 82.875zm43.922 723.24c0 82.734-67.266 150-150 150h-450c-82.734 0-150-67.266-150-150v-700.03c0-82.734 67.266-150 150-150h300v99.984c0 110.3 89.672 200.02 200.02 200.02h99.984v249.98h-129.28l14.625-14.625c19.547-19.547 19.547-51.188 0-70.688-19.547-19.547-51.188-19.547-70.688 0l-99.984 99.984c-19.547 19.547-19.547 51.188 0 70.688l99.984 99.984c19.547 19.547 51.188 19.547 70.688 0 19.547-19.547 19.547-51.188 0-70.688l-14.625-14.625h129.28z"/>
</svg>
