<?xml version="1.0" encoding="UTF-8"?>
<svg width="1200pt" height="1200pt" version="1.1" viewBox="0 0 1200 1200" xmlns="http://www.w3.org/2000/svg">
 <g>
  <path d="m600 100c-132.61 0-259.79 52.68-353.55 146.45-93.766 93.77-146.45 220.95-146.45 353.55s52.68 259.79 146.45 353.55c93.77 93.766 220.95 146.45 353.55 146.45s259.79-52.68 353.55-146.45c93.766-93.77 146.45-220.95 146.45-353.55 0-87.77-23.102-173.99-66.988-250-43.883-76.008-107-139.13-183.01-183.01-76.008-43.887-162.23-66.988-250-66.988zm0 900c-106.09 0-207.83-42.145-282.84-117.16-75.012-75.016-117.16-176.76-117.16-282.84s42.145-207.83 117.16-282.84c75.016-75.012 176.76-117.16 282.84-117.16s207.83 42.145 282.84 117.16c75.012 75.016 117.16 176.76 117.16 282.84 0 70.215-18.484 139.19-53.59 200-35.105 60.809-85.602 111.3-146.41 146.41-60.809 35.105-129.79 53.59-200 53.59z"/>
  <path d="m600 500c-13.262 0-25.98 5.2695-35.355 14.645s-14.645 22.094-14.645 35.355v250c0 17.863 9.5312 34.371 25 43.301 15.469 8.9336 34.531 8.9336 50 0 15.469-8.9297 25-25.438 25-43.301v-250c0-13.262-5.2695-25.98-14.645-35.355s-22.094-14.645-35.355-14.645z"/>
  <path d="m564.5 364.5c-9.1367 9.582-14.316 22.262-14.5 35.5-0.078125 13.289 5.1406 26.062 14.5 35.5 4.8594 4.418 10.441 7.9688 16.5 10.5 12.102 5.3477 25.898 5.3477 38 0 6.0586-2.5312 11.641-6.082 16.5-10.5 4.4023-4.8711 7.9492-10.449 10.5-16.5 2.8008-5.9336 4.168-12.441 4-19 0.078125-13.316-5.1602-26.117-14.555-35.559-9.3945-9.4414-22.168-14.742-35.484-14.73-13.32 0.007812-26.082 5.332-35.461 14.789z"/>
 </g>
</svg>
