<?xml version="1.0" encoding="UTF-8"?>
<svg width="1200pt" height="1200pt" version="1.1" viewBox="0 0 1200 1200" xmlns="http://www.w3.org/2000/svg">
 <path d="m1104 192v820.8c-1.2344 24.617-11.887 47.82-29.762 64.801-17.871 16.977-41.586 26.43-66.238 26.398h-567.84c-25.051 0.007812-49.113-9.7773-67.047-27.266-17.938-17.484-28.328-41.293-28.953-66.336v-86.879c0-17.148 9.1484-32.996 24-41.57 14.852-8.5742 33.148-8.5742 48 0 14.852 8.5742 24 24.422 24 41.57v86.879l567.84-2.3984v-816h-567.84v84.48c0 17.148-9.1484 32.996-24 41.57-14.852 8.5742-33.148 8.5742-48 0-14.852-8.5742-24-24.422-24-41.57v-84.48c0-25.461 10.113-49.879 28.117-67.883 18.004-18.004 42.422-28.117 67.883-28.117h567.84c25.461 0 49.879 10.113 67.883 28.117 18.004 18.004 28.117 42.422 28.117 67.883zm-658.08 539.52c-10.613 13.02-13.645 30.641-8 46.461 5.6484 15.82 19.152 27.535 35.613 30.895 16.457 3.3555 33.473-2.1328 44.863-14.477l141.6-162.72c7.6953-8.7578 11.938-20.02 11.938-31.68s-4.2422-22.922-11.938-31.68l-141.6-162.72c-11.391-12.344-28.406-17.832-44.863-14.477-16.461 3.3594-29.965 15.074-35.613 30.895-5.6445 15.82-2.6133 33.441 8 46.461l72.477 83.52h-374.4c-17.148 0-32.996 9.1484-41.57 24-8.5742 14.852-8.5742 33.148 0 48 8.5742 14.852 24.422 24 41.57 24h374.4z"/>
</svg>
