<?xml version="1.0" encoding="UTF-8"?>
<svg width="1200pt" height="1200pt" version="1.1" viewBox="0 0 1200 1200" xmlns="http://www.w3.org/2000/svg">
 <path d="m275.88 217.56c-25.68 6.7188-41.039 32.879-34.32 58.559l29.879 114.48c22.199 85.32 34.559 132.24 76.68 164.76 42.121 32.52 90.719 32.52 178.8 32.52h25.078v267.36l-96.121-96c-18.719-18.719-49.078-18.719-67.922 0-18.719 18.719-18.719 49.199 0 67.922l117.48 117.48c25.078 25.32 58.559 39.238 94.199 39.359h0.23828c35.641 0 69.121-13.922 94.32-39.121l118.8-118.8c18.719-18.719 18.719-49.078 0-67.922-18.719-18.719-49.078-18.719-67.922 0l-97.32 97.32v-267.48h25.078c88.078 0 136.68 0 178.8-32.52 42.121-32.52 54.359-79.559 76.68-164.76l29.879-114.48c6.7188-25.68-8.6406-51.84-34.32-58.559-25.68-6.7188-51.84 8.6406-58.559 34.32l-29.879 114.48c-18.238 69.719-26.879 101.04-42.48 113.04-15.602 12-48 12.48-120.12 12.48h-25.078v-228c0-26.52-21.48-48-48-48s-48 21.48-48 48v228h-25.078c-72 0-104.52-0.48047-120.12-12.48-15.602-12-24.238-43.32-42.48-113.04l-29.879-114.48c-6.7188-25.68-32.879-41.039-58.559-34.32z"/>
</svg>
