<?xml version="1.0" encoding="UTF-8"?>
<svg width="1200pt" height="1200pt" version="1.1" viewBox="0 0 1200 1200" xmlns="http://www.w3.org/2000/svg">
 <g>
  <path d="m600 300v75c0 6.6289 2.6328 12.988 7.3242 17.676 4.6875 4.6914 11.047 7.3242 17.676 7.3242 5.9922-0.070312 11.758-2.2852 16.25-6.25l150-125c4.8906-4.7109 7.6523-11.211 7.6523-18s-2.7617-13.289-7.6523-18l-150-125c-4.2656-4.5117-10.059-7.2734-16.25-7.75-6.6289 0-12.988 2.6328-17.676 7.3242-4.6914 4.6875-7.3242 11.047-7.3242 17.676v75c-106.09 0-207.83 42.145-282.84 117.16-75.012 75.016-117.16 176.76-117.16 282.84-0.29688 88.309 28.918 174.19 83 244 8.0898 10.508 20.023 17.375 33.172 19.086 13.152 1.7109 26.445-1.8711 36.953-9.9609s17.375-20.023 19.086-33.172c1.7109-13.152-1.8711-26.445-9.9609-36.953-40.574-52.352-62.484-116.77-62.25-183 0-79.566 31.605-155.87 87.867-212.13 56.262-56.262 132.57-87.867 212.13-87.867z"/>
  <path d="m920 360c-10.719-14.289-28.246-21.777-45.98-19.641s-32.984 13.57-40 30c-7.0156 16.426-4.7383 35.352 5.9805 49.641 44.797 59.727 65.711 134.01 58.66 208.34-7.0547 74.328-41.566 143.35-96.797 193.59-55.227 50.234-127.2 78.074-201.86 78.074v-75c0-6.6289-2.6328-12.988-7.3242-17.676-4.6875-4.6914-11.047-7.3242-17.676-7.3242-6.0234 0.13672-11.793 2.4453-16.25 6.5l-150 125c-4.8906 4.7109-7.6523 11.211-7.6523 18s2.7617 13.289 7.6523 18l150 125c4.3047 4.418 10.094 7.0898 16.25 7.5 6.6289 0 12.988-2.6328 17.676-7.3242 4.6914-4.6875 7.3242-11.047 7.3242-17.676v-75c99.547 0 195.52-37.117 269.15-104.1 73.641-66.98 119.66-159.02 129.06-258.12 9.4023-99.098-18.484-198.14-78.211-277.78z"/>
 </g>
</svg>
