<?xml version="1.0" encoding="UTF-8"?>
<svg width="1200pt" height="1200pt" version="1.1" viewBox="0 0 1200 1200" xmlns="http://www.w3.org/2000/svg">
 <path d="m1119.6 232.8-243.6-165.6c-15.602-10.801-34.801-10.801-50.398 0l-225.6 148.8-218.4-148.8c-15.602-10.801-34.801-10.801-50.398 0l-250.8 165.6c-13.199 8.3984-20.398 22.801-20.398 37.199v247.2c0 14.398 7.1992 28.801 20.398 37.199l228 153.6v220.8c0 14.398 7.1992 28.801 20.398 37.199l243.6 165.6c7.1992 4.8008 16.801 7.1992 25.199 7.1992 8.3984 0 16.801-2.3984 25.199-7.1992l250.8-165.6c13.199-8.3984 20.398-22.801 20.398-37.199l0.003906-224.4 226.8-148.8c13.199-8.3984 20.398-22.801 20.398-37.199v-248.4c-1.1992-14.398-8.3984-28.801-21.598-37.199zm-268.8-73.199 163.2 110.4-169.2 111.6-163.2-110.4zm-254.4 633.6-163.2-110.4 168-110.4 163.2 110.4zm206.4-195.6-157.2-106.8v-135.6l157.2 106.8zm-247.2-104.4-157.2 103.2-0.003906-139.2 157.2-103.2zm-200.4-333.6 163.2 110.4-169.2 111.6-163.2-110.4zm-205.2 195.6 157.2 106.8v138l-157.2-106.8zm247.2 411.6 157.2 106.8v139.2l-157.2-106.8zm248.4 242.4v-140.4l157.2-103.2v140.4zm247.2-412.8v-139.2l157.2-103.2v140.4z"/>
</svg>
