<?xml version="1.0" encoding="UTF-8"?>
<svg width="1200pt" height="1200pt" version="1.1" viewBox="0 0 1200 1200" xmlns="http://www.w3.org/2000/svg">
 <path d="m855.84 923.52v86.879c-0.625 25.043-11.016 48.852-28.953 66.336-17.934 17.488-41.996 27.273-67.047 27.266h-567.84c-25.051 0.007812-49.113-9.7773-67.047-27.266-17.938-17.484-28.328-41.293-28.953-66.336v-818.4c0-25.461 10.113-49.879 28.117-67.883 18.004-18.004 42.422-28.117 67.883-28.117h567.84c25.461 0 49.879 10.113 67.883 28.117 18.004 18.004 28.117 42.422 28.117 67.883v84.48c0 17.148-9.1484 32.996-24 41.57-14.852 8.5742-33.148 8.5742-48 0-14.852-8.5742-24-24.422-24-41.57v-84.48h-567.84v818.4l567.84-2.3984v-84.48c0-17.148 9.1484-32.996 24-41.57 14.852-8.5742 33.148-8.5742 48 0 14.852 8.5742 24 24.422 24 41.57zm236.16-355.2-141.6-162.72c-8.2031-10.07-20.137-16.383-33.074-17.5-12.938-1.1172-25.777 3.0547-35.59 11.562-9.8086 8.5117-15.75 20.633-16.469 33.602-0.71875 12.965 3.8438 25.672 12.656 35.215l72.477 83.52h-374.4c-17.148 0-32.996 9.1484-41.57 24-8.5742 14.852-8.5742 33.148 0 48 8.5742 14.852 24.422 24 41.57 24h374.4l-72.48 83.52h0.003906c-10.613 13.02-13.645 30.641-8 46.461 5.6484 15.82 19.152 27.535 35.613 30.895 16.457 3.3555 33.473-2.1328 44.863-14.477l141.6-162.72c7.6953-8.7578 11.938-20.02 11.938-31.68s-4.2422-22.922-11.938-31.68z"/>
</svg>
