<?xml version="1.0" encoding="UTF-8"?>
<svg width="1200pt" height="1200pt" version="1.1" viewBox="0 0 1200 1200" xmlns="http://www.w3.org/2000/svg">
 <g>
  <path d="m600 225c7.957 0 15.586-3.1602 21.215-8.7852 5.625-5.6289 8.7852-13.258 8.7852-21.215v-60c0-10.719-5.7188-20.621-15-25.98s-20.719-5.3594-30 0-15 15.262-15 25.98v60c0 7.957 3.1602 15.586 8.7852 21.215 5.6289 5.625 13.258 8.7852 21.215 8.7852z"/>
  <path d="m630 285c0 16.57-13.43 30-30 30s-30-13.43-30-30 13.43-30 30-30 30 13.43 30 30"/>
  <path d="m225 630h258.95c5.3906 20.703 16.207 39.59 31.336 54.719s34.016 25.945 54.719 31.336v348.95c0 10.719 5.7188 20.621 15 25.98s20.719 5.3594 30 0 15-15.262 15-25.98v-348.95c20.703-5.3906 39.59-16.207 54.719-31.336s25.945-34.016 31.336-54.719h33.945c10.719 0 20.621-5.7188 25.98-15s5.3594-20.719 0-30-15.262-15-25.98-15h-33.945c-5.3906-20.703-16.207-39.59-31.336-54.719s-34.016-25.945-54.719-31.336v-108.95c0-10.719-5.7188-20.621-15-25.98s-20.719-5.3594-30 0-15 15.262-15 25.98v108.95c-20.703 5.3906-39.59 16.207-54.719 31.336s-25.945 34.016-31.336 54.719h-258.95c-10.719 0-20.621 5.7188-25.98 15s-5.3594 20.719 0 30 15.262 15 25.98 15zm375-90c20.73 0.74609 39.609 12.145 49.918 30.148 10.305 18.004 10.582 40.055 0.72656 58.312-9.8516 18.254-28.438 30.125-49.145 31.391-0.51172 0-0.97656-0.14844-1.5-0.14844s-0.98828 0.12109-1.5 0.14844c-20.707-1.2656-39.293-13.137-49.145-31.391-9.8555-18.258-9.5781-40.309 0.72656-58.312 10.309-18.004 29.188-29.402 49.918-30.148z"/>
  <path d="m165 600c0 16.57-13.43 30-30 30s-30-13.43-30-30 13.43-30 30-30 30 13.43 30 30"/>
  <path d="m1065 570h-135c-10.719 0-20.621 5.7188-25.98 15s-5.3594 20.719 0 30 15.262 15 25.98 15h135c10.719 0 20.621-5.7188 25.98-15s5.3594-20.719 0-30-15.262-15-25.98-15z"/>
  <path d="m870 600c0 16.57-13.43 30-30 30s-30-13.43-30-30 13.43-30 30-30 30 13.43 30 30"/>
 </g>
</svg>
