<?xml version="1.0" encoding="UTF-8"?>
<svg width="1200pt" height="1200pt" version="1.1" viewBox="0 0 1200 1200" xmlns="http://www.w3.org/2000/svg">
 <g>
  <path d="m825 566.25c22.785 0 41.25-18.469 41.25-41.25s-18.465-41.25-41.25-41.25-41.25 18.469-41.25 41.25 18.465 41.25 41.25 41.25z"/>
  <path d="m337.5 285c0-53.848 43.652-97.5 97.5-97.5h330c53.852 0 97.5 43.652 97.5 97.5v90c82.844 0 150 67.156 150 150v187.5c0 82.844-67.156 150-150 150v90c0 53.852-43.648 97.5-97.5 97.5h-330c-53.848 0-97.5-43.648-97.5-97.5v-90c-82.844 0-150-67.156-150-150v-187.5c0-82.844 67.156-150 150-150zm0 165c-41.422 0-75 33.578-75 75v187.5c0 41.422 33.578 75 75 75v-90c0-53.848 43.652-97.5 97.5-97.5h330c53.852 0 97.5 43.652 97.5 97.5v90c41.422 0 75-33.578 75-75v-187.5c0-41.422-33.578-75-75-75zm450-75h-375v-90c0-12.426 10.074-22.5 22.5-22.5h330c12.426 0 22.5 10.074 22.5 22.5zm0 322.5c0-12.426-10.074-22.5-22.5-22.5h-330c-12.426 0-22.5 10.074-22.5 22.5v255c0 12.426 10.074 22.5 22.5 22.5h330c12.426 0 22.5-10.074 22.5-22.5z" fill-rule="evenodd"/>
 </g>
</svg>
