<?xml version="1.0" encoding="UTF-8"?>
<svg width="1200pt" height="1200pt" version="1.1" viewBox="0 0 1200 1200" xmlns="http://www.w3.org/2000/svg">
 <g>
  <path d="m949.2 187.2h-60c-12-55.199-61.199-94.801-118.8-94.801-68.398 0-122.4 54-122.4 122.4 0 67.199 55.199 122.4 122.4 122.4 57.602 0 106.8-40.801 118.8-94.801h60c91.199 0 164.4 74.398 164.4 165.6 0 91.199-74.398 164.4-164.4 164.4h-174l60-60-39.602-39.602-126 127.2 127.2 127.2 39.602-39.602-60-60h174c121.2 0 220.8-98.398 220.8-220.8-0.003906-122.4-99.602-219.6-222-219.6z"/>
  <path d="m152.4 337.2c57.602 0 106.8-40.801 118.8-94.801h234l-60 60 39.602 39.602 127.2-127.2-127.2-127.2-39.602 39.602 60 60-232.8-0.003906c-13.199-54-61.199-94.801-118.8-94.801-67.199 0-122.4 55.199-122.4 122.4-1.1992 67.203 54 122.4 121.2 122.4z"/>
  <path d="m949.2 862.8c-67.199 0-122.4 55.199-122.4 122.4s55.199 122.4 122.4 122.4 122.4-55.199 122.4-122.4c0.003906-67.199-53.996-122.4-122.4-122.4z"/>
  <path d="m627.6 897.6 60 60h-422.4c-91.199 0-164.4-74.398-164.4-165.6 0-91.199 74.398-164.4 164.4-164.4h130.8c13.199 54 61.199 94.801 118.8 94.801 67.199 0 122.4-55.199 122.4-122.4 0-67.199-55.199-122.4-122.4-122.4-57.602 0-106.8 40.801-118.8 94.801l-130.8-0.007812c-121.2 0-220.8 98.402-220.8 220.8 0 121.2 98.398 220.8 220.8 220.8h422.4l-60 60 39.602 39.602 127.2-127.2-127.2-128.4z"/>
 </g>
</svg>
