<?xml version="1.0" encoding="UTF-8"?>
<svg width="1200pt" height="1200pt" version="1.1" viewBox="0 0 1200 1200" xmlns="http://www.w3.org/2000/svg">
 <g>
  <path d="m937.5 1190.6h-675c-56.871 0-103.12-46.254-103.12-103.12v-975c0-56.871 46.254-103.12 103.12-103.12h525c7.4688 0 14.609 2.9648 19.887 8.2383l225 225c5.2734 5.2734 8.2383 12.43 8.2383 19.887v825c0 56.871-46.254 103.12-103.12 103.12zm-675-1125c-25.855 0-46.875 21.02-46.875 46.875v975c0 25.855 21.02 46.875 46.875 46.875h675c25.855 0 46.875-21.02 46.875-46.875v-813.36l-208.52-208.52z"/>
  <path d="m1012.5 290.62h-225c-15.527 0-28.125-12.598-28.125-28.125v-225c0-15.527 12.598-28.125 28.125-28.125s28.125 12.598 28.125 28.125v196.88h196.88c15.527 0 28.125 12.598 28.125 28.125s-12.598 28.125-28.125 28.125z"/>
  <path d="m637.5 253.12h-300c-15.527 0-28.125-12.598-28.125-28.125s12.598-28.125 28.125-28.125h300c15.527 0 28.125 12.598 28.125 28.125s-12.598 28.125-28.125 28.125z"/>
  <path d="m862.5 440.62h-525c-15.527 0-28.125-12.598-28.125-28.125s12.598-28.125 28.125-28.125h525c15.527 0 28.125 12.598 28.125 28.125s-12.598 28.125-28.125 28.125z"/>
  <path d="m862.5 628.12h-525c-15.527 0-28.125-12.598-28.125-28.125s12.598-28.125 28.125-28.125h525c15.527 0 28.125 12.598 28.125 28.125s-12.598 28.125-28.125 28.125z"/>
  <path d="m862.5 815.62h-525c-15.527 0-28.125-12.598-28.125-28.125s12.598-28.125 28.125-28.125h525c15.527 0 28.125 12.598 28.125 28.125s-12.598 28.125-28.125 28.125z"/>
  <path d="m862.5 1003.1h-525c-15.527 0-28.125-12.598-28.125-28.125s12.598-28.125 28.125-28.125h525c15.527 0 28.125 12.598 28.125 28.125s-12.598 28.125-28.125 28.125z"/>
 </g>
</svg>
