<?xml version="1.0" encoding="UTF-8"?>
<svg width="1200pt" height="1200pt" version="1.1" viewBox="0 0 1200 1200" xmlns="http://www.w3.org/2000/svg">
 <g>
  <path d="m771.94 144h-343.87c-156.61 0-284.06 127.45-284.06 284.06v343.92c0 156.56 127.45 284.02 284.06 284.02h343.92c156.56 0 284.02-127.45 284.02-284.06v-343.87c0-156.61-127.45-284.06-284.06-284.06zm212.06 627.94c0 116.91-95.156 212.06-212.06 212.06h-343.87c-116.91 0-212.06-95.156-212.06-212.06v-343.87c0-116.91 95.156-212.06 212.06-212.06h343.92c116.86 0 212.02 95.156 212.02 212.06z"/>
  <path d="m736.22 564h-272.44c-19.922 0-36 16.078-36 36s16.078 36 36 36h272.53c19.922 0 36-16.078 36-36s-16.172-36-36.094-36z"/>
 </g>
</svg>
