<?xml version="1.0" encoding="UTF-8"?>
<svg width="1200pt" height="1200pt" version="1.1" viewBox="0 0 1200 1200" xmlns="http://www.w3.org/2000/svg">
 <g>
  <path d="m1087.5 150h-112.5v-37.5c0-29.836-11.852-58.453-32.949-79.551-21.098-21.098-49.715-32.949-79.551-32.949h-750c-29.836 0-58.453 11.852-79.551 32.949-21.098 21.098-32.949 49.715-32.949 79.551v750c0 29.836 11.852 58.453 32.949 79.551 21.098 21.098 49.715 32.949 79.551 32.949h37.5v112.5c0 29.836 11.852 58.453 32.949 79.551 21.098 21.098 49.715 32.949 79.551 32.949h825c29.836 0 58.453-11.852 79.551-32.949 21.098-21.098 32.949-49.715 32.949-79.551v-825c0-29.836-11.852-58.453-32.949-79.551-21.098-21.098-49.715-32.949-79.551-32.949zm-937.5 112.5v637.5h-37.5c-9.9453 0-19.484-3.9492-26.516-10.984-7.0352-7.0312-10.984-16.57-10.984-26.516v-750c0-9.9453 3.9492-19.484 10.984-26.516 7.0312-7.0352 16.57-10.984 26.516-10.984h750c9.9453 0 19.484 3.9492 26.516 10.984 7.0352 7.0312 10.984 16.57 10.984 26.516v37.5h-637.5c-29.836 0-58.453 11.852-79.551 32.949-21.098 21.098-32.949 49.715-32.949 79.551zm975 825c0 9.9453-3.9492 19.484-10.984 26.516-7.0312 7.0352-16.57 10.984-26.516 10.984h-825c-9.9453 0-19.484-3.9492-26.516-10.984-7.0352-7.0312-10.984-16.57-10.984-26.516v-825c0-9.9453 3.9492-19.484 10.984-26.516 7.0312-7.0352 16.57-10.984 26.516-10.984h825c9.9453 0 19.484 3.9492 26.516 10.984 7.0352 7.0312 10.984 16.57 10.984 26.516z"/>
  <path d="m412.5 637.5h525v75h-525z"/>
 </g>
</svg>
