<?xml version="1.0" encoding="UTF-8"?>
<svg width="1200pt" height="1200pt" version="1.1" viewBox="0 0 1200 1200" xmlns="http://www.w3.org/2000/svg">
 <path d="m937.5 1125h-675c-49.727 0-97.418-19.754-132.58-54.918-35.164-35.164-54.918-82.855-54.918-132.58v-675c0-49.727 19.754-97.418 54.918-132.58 35.164-35.164 82.855-54.918 132.58-54.918h675c32.914 0 65.246 8.6641 93.75 25.121 28.504 16.457 52.172 40.125 68.629 68.629 16.457 28.504 25.121 60.836 25.121 93.75v675c0 32.914-8.6641 65.246-25.121 93.75-16.457 28.504-40.125 52.172-68.629 68.629-28.504 16.457-60.836 25.121-93.75 25.121zm-675-975c-29.836 0-58.453 11.852-79.551 32.949-21.098 21.098-32.949 49.715-32.949 79.551v675c0 29.836 11.852 58.453 32.949 79.551 21.098 21.098 49.715 32.949 79.551 32.949h675c29.836 0 58.453-11.852 79.551-32.949 21.098-21.098 32.949-49.715 32.949-79.551v-675c0-29.836-11.852-58.453-32.949-79.551-21.098-21.098-49.715-32.949-79.551-32.949z"/>
</svg>
