<?xml version="1.0" encoding="UTF-8"?>
<svg width="1200pt" height="1200pt" version="1.1" viewBox="0 0 1200 1200" xmlns="http://www.w3.org/2000/svg">
 <g>
  <path d="m829.2 550.8-312-193.2c-38.398-24-88.801 3.6016-88.801 49.199v385.2c0 45.602 49.199 73.199 88.801 49.199l312-193.2c37.199-21.602 37.199-74.398 0-97.199z"/>
  <path d="m600 30c-314.4 0-570 255.6-570 570s255.6 570 570 570 570-255.6 570-570-255.6-570-570-570zm0 1029.6c-253.2 0-459.6-206.4-459.6-459.6 0-253.2 206.4-459.6 459.6-459.6s459.6 206.4 459.6 459.6-206.4 459.6-459.6 459.6z"/>
 </g>
</svg>
