<?xml version="1.0" encoding="UTF-8"?>
<svg width="1200pt" height="1200pt" version="1.1" viewBox="0 0 1200 1200" xmlns="http://www.w3.org/2000/svg">
 <path d="m600 30c-151.17 0-296.16 60.055-403.05 166.95-106.9 106.9-166.95 251.88-166.95 403.05s60.055 296.16 166.95 403.05c106.89 106.9 251.88 166.95 403.05 166.95s296.16-60.055 403.05-166.95c106.9-106.9 166.95-251.88 166.95-403.05s-60.055-296.16-166.95-403.05c-106.9-106.9-251.88-166.95-403.05-166.95zm304.9 353.46-316.68 443.33v0.011719c-10.824 15.152-27.766 24.789-46.324 26.336-1.7695 0.12891-3.5 0.19141-5.2266 0.19141-16.805 0.011719-32.91-6.668-44.773-18.555l-190-190c-15.766-16.043-21.832-39.242-15.945-60.945 5.8945-21.703 22.848-38.656 44.551-44.543 21.703-5.8828 44.902 0.17969 60.945 15.938l137.14 137.12 273.2-382.48c13.148-18.418 35.117-28.426 57.648-26.242 22.52 2.1719 42.176 16.203 51.551 36.793 9.3828 20.602 7.0625 44.625-6.0859 63.047z"/>
</svg>
