<?xml version="1.0" encoding="UTF-8"?>
<svg width="1200pt" height="1200pt" version="1.1" viewBox="0 0 1200 1200" xmlns="http://www.w3.org/2000/svg">
 <g>
  <path d="m972 372.72c0-66.48-49.68-122.76-115.68-131.04l-35.879-4.4414c-1.4414-0.23828-3-0.23828-4.4414-0.23828-17.879 0-33.48 13.32-35.762 31.559-2.5195 19.68 11.52 37.68 31.199 40.199l35.879 4.4414c30 3.7188 52.559 29.281 52.559 59.52v454.56c0 30.238-22.559 55.801-52.559 59.52l-35.879 4.4414c-9.4805 1.1992-18 6-24 13.68-5.8789 7.5586-8.5195 17.039-7.3203 26.52 2.3984 19.441 20.16 33.719 40.199 31.199l35.879-4.4414c65.879-8.2812 115.68-64.559 115.68-131.04l0.003906-454.44z"/>
  <path d="m352.56 313.2 35.879-4.4414c9.4805-1.1992 18-6 24-13.68 5.8789-7.5586 8.5195-17.039 7.3203-26.52-2.2812-18.121-17.879-31.559-35.762-31.559-1.4414 0-3 0-4.4414 0.23828l-35.879 4.4414c-65.879 8.2812-115.68 64.559-115.68 131.04v454.56c0 66.48 49.68 122.76 115.68 131.04l35.879 4.4414c19.922 2.3984 37.801-11.762 40.199-31.199 1.1992-9.4805-1.4414-18.961-7.3203-26.52-5.8789-7.5586-14.398-12.48-24-13.68l-35.879-4.4414c-30-3.7188-52.559-29.281-52.559-59.52l0.003906-454.68c0-30.238 22.559-55.801 52.559-59.52z"/>
  <path d="m478.56 721.44c13.559 13.559 37.32 13.559 50.879 0l70.559-70.559 70.559 70.559c13.559 13.559 37.32 13.559 50.879 0s14.039-36.84 0-50.879l-70.559-70.559 70.559-70.559c14.039-14.039 14.039-36.84 0-50.879-14.039-14.039-36.84-14.039-50.879 0l-70.559 70.559-70.559-70.559c-14.039-14.039-36.84-14.039-50.879 0-14.039 14.039-14.039 36.84 0 50.879l70.559 70.559-70.559 70.559c-14.039 14.039-14.039 36.84 0 50.879z"/>
 </g>
</svg>
