<?xml version="1.0" encoding="UTF-8"?>
<svg width="1200pt" height="1200pt" version="1.1" viewBox="0 0 1200 1200" xmlns="http://www.w3.org/2000/svg">
 <path d="m600.22 89.969c-35.863-0.007812-68.785 20.434-84.844 52.5l-415.43 830.21c-30.934 61.953 15.773 137.33 85.02 137.34h830.27c69.246-0.015625 115.72-75.391 84.785-137.34l-414.96-830.21c-16.055-32.066-48.98-52.508-84.844-52.5zm0 60c13.273-0.003906 25.289 7.4102 31.23 19.277l415.02 830.27c12.137 24.305-4.0625 50.441-31.23 50.449h-830.27c-27.168-0.007812-43.367-26.145-31.23-50.449l415.25-830.27c5.9414-11.863 17.961-19.281 31.23-19.277zm-0.87891 251.84c-42.32-0.011719-76.652 35.262-76.641 77.461v231.21c-0.011719 42.203 34.32 77.766 76.641 77.754 42.32 0.011719 76.828-35.551 76.816-77.754v-231.21c0.011719-42.203-34.496-77.473-76.816-77.461zm0 60c9.2773-0.003907 16.82 7.1016 16.816 17.461v231.21c0.003906 10.359-7.5391 17.758-16.816 17.754-9.2773 0.003906-16.645-7.3945-16.641-17.754v-231.21c-0.003907-10.359 7.3633-17.465 16.641-17.461zm-1.9922 351.45c-41.406 1.0664-74.66 35.977-74.648 77.52-0.011719 42.203 34.32 77.531 76.641 77.52 42.32 0.011719 76.828-35.316 76.816-77.52 0.011719-42.199-34.496-77.531-76.816-77.52-0.66016 0-1.3359-0.015625-1.9922 0zm1.9922 59.766c9.2773-0.003906 16.82 7.3945 16.816 17.754 0.003906 10.359-7.5391 17.465-16.816 17.461-9.2773 0.003906-16.645-7.1016-16.641-17.461-0.003907-10.359 7.3633-17.758 16.641-17.754z"/>
</svg>
