<?xml version="1.0" encoding="UTF-8"?>
<svg width="1200pt" height="1200pt" version="1.1" viewBox="0 0 1200 1200" xmlns="http://www.w3.org/2000/svg">
 <path d="m1063.2 258-111.6-111.6c-14.398-14.398-37.199-14.398-50.398 0l-46.801 46.801c-10.801-25.199-36-43.199-66-43.199h-572.4c-39.602 0-72 32.398-72 72v762c0 39.602 32.398 72 72 72h571.2c39.602 0 72-32.398 72-72v-471.6l204-204c14.398-13.199 14.398-36 0-50.398zm-276 726h-571.2v-762h571.2v37.199l-84 84c-6-12-18-19.199-31.199-19.199h-336c-20.398 0-36 15.602-36 36s15.602 36 36 36h314.4l-96 96h-2.3984-216c-20.398 0-36 15.602-36 36s15.602 36 36 36h146.4l-68.398 68.398c-2.3984 2.3984-4.8008 6-7.1992 9.6016l-7.1992 18h-63.602c-20.398 0-36 15.602-36 36s15.602 36 36 36h30l-56.398 120c-6 13.199-3.6016 30 7.1992 40.801 7.1992 7.1992 15.602 10.801 25.199 10.801 4.8008 0 10.801-1.1992 15.602-3.6016l210-98.398c3.6016-1.1992 7.1992-3.6016 9.6016-7.1992l63.602-63.602c2.3984 0 4.8008 1.1992 7.1992 1.1992h24c20.398 0 36-15.602 36-36 0-8.3984-3.6016-16.801-8.3984-22.801l87.602-87.602zm25.199-525.6-25.199 25.199-256.8 255.6-114 54 54-114 346.8-346.8 61.199 61.199zm115.2-116.4-61.199-61.199 58.801-58.801 61.199 61.199z"/>
</svg>
